<svg xmlns="http://www.w3.org/2000/svg" width="122.354" height="60.882" viewBox="0 0 122.354 60.882"><path id="Path_22" data-name="Path 22" d="M202.165,72.247l3.541.023.023-8.721c.309.195.323.291.568.6s.3.394.531.669A47.464,47.464,0,0,0,210,68.636L214.14,63.5l.035,8.768,3.478,0,.039-14.263c-3.949-.034-2.758-.454-4.716,1.957-.5.623-.973,1.21-1.491,1.853l-1.5,1.911a8.061,8.061,0,0,1-1.192-1.4c-.393-.505-.748-.959-1.135-1.438l-2.322-2.875-3.172.018Zm30.325,0a52.128,52.128,0,0,0,5.263.023,11.6,11.6,0,0,0,4.617-.662A7.016,7.016,0,0,0,246.5,65.1a7.167,7.167,0,0,0-1.255-4.06c-1.769-2.583-4.541-3.027-7.575-3.034a49.082,49.082,0,0,0-5.192.028ZM236.055,60.9c2.18,0,4.116-.277,5.6,1.157,2.024,1.958,1.743,7.322-3.214,7.325l-2.384-.018Zm39.538-3.029a7.234,7.234,0,0,0-6.329,8.55c.66,4.285,4.726,6.589,9.007,6a7.266,7.266,0,0,0,6.315-8.623c-.681-4.281-4.686-6.481-8.992-5.93m-2.715,7.83a4.189,4.189,0,0,1,3.467-4.884,4,4,0,0,1,4.617,3.776c.552,6.047-7.478,6.637-8.083,1.108m47.774-.176a4.542,4.542,0,0,0,1.6-1.075,3.085,3.085,0,0,0,.8-1.773c.485-3.81-2.689-4.646-5.724-4.671a51.125,51.125,0,0,0-5.2.024l.025,14.237,3.549,0,.006-5.79c2.05-.237,2.569.658,3.193,2.1.274.638.549,1.242.816,1.846.255.573.527,1.28.831,1.838l3.967,0a38.592,38.592,0,0,0-1.635-3.633c-1.456-3.254-1.613-2.409-2.233-3.112m-4.941-4.98c1.429-.064,3.167-.212,3.584,1.051a1.955,1.955,0,0,1-.324,1.8c-.6.582-2.341.46-3.26.442ZM220.492,72.27h9.719l0-2.68-6.137,0,0-3.4h5.684l.027-2.635-5.707-.011-.006-2.865,5.978-.03,0-2.639h-9.549Zm79.583,0h9.682l.036-2.683-6.137,0,0-3.4h5.68l.028-2.639-5.708-.007,0-2.862,5.974-.034,0-2.64-9.512,0ZM267.754,71.1l.015-3.326c-1.6.895-3.389,2.024-5.851,1.717a4,4,0,0,1-3.669-4.041c-.2-4.736,4.313-5.57,8.031-3.919.5.222.892.538,1.354.7V58.9c-1.523-.422-1.852-.976-4.326-1.116-4.625-.264-8.9,2.283-8.753,7.581a7.007,7.007,0,0,0,4.307,6.5,9.559,9.559,0,0,0,4.777.576,11.4,11.4,0,0,0,4.116-1.341m31.29-13.091-3.812,0-2.816,6.19c-.166.369-.313.7-.482,1.061-.1.21-.163.346-.24.526l-.27.449L287.9,58.009l-3.757,0a36.57,36.57,0,0,0,1.579,3.623l4.829,10.772,1.575-.012Zm-50.31,0c-.129.972-.121,13.683.021,14.264l3.642-.01L252.38,58.01Zm4.578-41.472a42.34,42.34,0,0,1,5.061-1.057,33.929,33.929,0,0,1,15.893,2.65,26.333,26.333,0,0,1,8.424,5.638,24.878,24.878,0,0,1,3.548,4.256c.432.6.809,1.36,1.236,1.935-.615-2.15-3.482-6.466-5-8.036a22.7,22.7,0,0,0-7.584-5.533,27.472,27.472,0,0,0-16.745-1.556,23.346,23.346,0,0,0-4.833,1.7M240.48,27.383c.016-.015.038-.062.044-.048l.276-.43a32.4,32.4,0,0,1,3.558-4.934,27.887,27.887,0,0,1,9.006-6.517,29.41,29.41,0,0,1,9.86-2.467,28.656,28.656,0,0,1,8.453.618c.669.16,1.947.584,2.491.634a27.992,27.992,0,0,0-10.342-2.574,22.613,22.613,0,0,0-15.054,4.428c-.319.24-.626.479-.9.729A24.8,24.8,0,0,0,242.639,23a23.355,23.355,0,0,0-2.159,4.385m5.707-2.077c.439-.288.948-.814,1.481-1.225a25.024,25.024,0,0,1,14.1-5.445c5.907-.388,11.965.633,16.922,3.732a6.835,6.835,0,0,0,.932.577,7.7,7.7,0,0,0-1.589-1.38,24.818,24.818,0,0,0-16.357-4.64,20.548,20.548,0,0,0-9.019,2.882,20.923,20.923,0,0,0-1.815,1.185c-.306.221-.58.42-.831.625a23.717,23.717,0,0,0-3.822,3.688m16.168,2.72c-4.447,1.166-2.659,7.566,1.555,6.553,4.4-1.058,2.7-7.67-1.555-6.553M257.319,48.2l11.63.024a10.96,10.96,0,0,1,2.546-6.912c2.837-3.434,7.332-5.829,11.77-7.267a49.213,49.213,0,0,1,5.609-1.513c.329-.067.659-.14,1-.2l1.014-.232c-7.212-.119-15.931.767-22.5,3.533-3.415,1.438-4.359,2.859-5.256,3.4a14.532,14.532,0,0,1-1.15-.988c-4.4-3.632-12.637-5.114-18.229-5.59a66.686,66.686,0,0,0-8.432-.343l3.892.83c7.437,1.8,17.865,6.195,18.1,15.258" transform="translate(-202.165 -11.636)" fill="#676767" fill-rule="evenodd"></path></svg>