<svg xmlns="http://www.w3.org/2000/svg" width="228.812" height="46.082" viewBox="0 0 228.812 46.082"><path id="Path_20" data-name="Path 20" d="M871.1,54.034c2.09,7.751,13.805,6.305,17.761,4.092a9.583,9.583,0,0,0,5.146-7.445c.784-5.62-4.01-6.368-5.118-7.041-1.37-.24-7.229-1.567-7.483-3.028-.244-1.392,1.465-2.057,3.057-2.016,3.152.084,2.094,1.679,2.952,2.218h7.643c.168-3.287-.891-5.216-2.763-6.436C887.9,31.518,876,31.8,873.49,39.647c-2.974,9.3,8.117,8.876,11.326,10.763a1.458,1.458,0,0,1-.017,2.721c-.9.522-5.411,1.718-5.784-2.052l-8.139.013Zm36.1-8.6c5.283-1.4,3.614,7.469.354,8.375-2.835.787-3.729-1.236-3.358-3.819.321-2.235,1-4.024,3-4.556m-98.6,10.878c.719,2.4,3.035,3.425,6.164,3.278,3.228-.152,4.659-1.77,6.44-3.041l-.4,2.539,6.9.017,1.884-10.519,1.458-8.435-7.5-.049c-1.75,4.392-.511,12.985-4.752,13.574-5.252.728-.813-7.8-.694-13.532l-7.464-.042c-.479,1.083-1.2,6.4-1.488,7.984-.382,2.112-1.292,6.251-.549,8.226M929.172,39.789c-5.2,1.291-8.519,4.787-9.28,10.492-.887,6.651,3.44,9.743,9.828,9.5,5.835-.225,9.848-3.571,11.3-8.283,1.956-6.367-.393-11.089-6.325-11.9a19.5,19.5,0,0,0-5.519.2m1.706,5.043c3.136-.674,3.44,1.933,3.023,4.526-.339,2.114-.982,4.463-3.06,5.017-3.359.9-3.648-1.938-3.2-4.591.412-2.456.978-4.466,3.241-4.952M961.33,57.757c.986,1.249,2.363,1.548,4.309,1.649.774.041,5.149.113,5.554-.294.519-.682.73-3.869,1.007-4.922-.164-.735.416-.306-1.59-.421-2.3-.131-1.719-1.441-1.39-3.3.337-1.9.806-4.062,1.034-5.955,3.641,0,3.524.381,3.715-.8.178-1.1.522-2.56.582-3.595l-3.477-.009c.176-1.506,1.172-5.545,1.051-6.687l-7.438-.012-1.223,6.684-2.626.006L960.1,44.5l2.6.007c-.312,2.183-.749,4.356-1.134,6.531-.419,2.368-1.1,4.354-.24,6.715M846.147,49.5c.3,2.507-2.144,6.646.128,8.808.948.9,2.748,1.068,4.272,1.114,1.3.039,4.112-.295,5.091-.06a38.712,38.712,0,0,0,.979-5.6c-3.606.155-3.514-.25-2.937-3.444a53.567,53.567,0,0,1,1.071-5.749c2.764-.381,3.378.651,3.637-.743a20.468,20.468,0,0,0,.515-3.716l-3.411,0,1.079-6.685c-1.07,0-2.607,0-3.84,0-.761,0-3.244-.331-3.618.2-.136.191-1.078,5.843-1.16,6.49l-2.68-.01-.749,4.414h2.607c-.128,1.015-.548,4.4-.984,4.99M833.61,48.28,831.781,59.1l7.565.011,1.587-8.806,2.9-16.916-7.593-.006ZM858.9,59.011l7.621.075.78-4.2c.3-2.821,2.593-13.491,2.485-14.776h-7.5a5.166,5.166,0,0,0-.249,1.139c-.055.353-.124.659-.225,1.2-.15.8-.277,1.578-.419,2.38Zm3.714-20.775c9.02.093,7.483.569,7.99-2.25a15.719,15.719,0,0,0,.383-2.547c-2.118-.121-4.46,0-6.612-.031-1.217-.015-.93-.213-1.326,2.013a18.668,18.668,0,0,0-.435,2.814m90.112,4.734-.2-.021.421-2.839-6.864,0c-.3.672-3.272,17.426-3.27,18.51-.191.221-.157-.1-.164.548l7.661,0-.029-.185c.678-2.687.822-5.84,1.557-8.482.841-3.027,3.007-3.491,6.491-3.329a57.588,57.588,0,0,0,1.185-7.2c.156-.118.149.162.163-.408a4.525,4.525,0,0,0-.89-.022c-.019,0-.45.044-.462.045-.355.061-.291.089-.372.124a6.268,6.268,0,0,0-5.229,3.255M902.8,57.719l.324.086c1.133.989,1.455,1.609,3.511,1.884,8.334,1.112,12.723-8.518,11.377-14.784-.659-3.067-2.339-4.45-5.247-5.213a8.985,8.985,0,0,0-7,1.9c-.294.24-.326.361-.611.586l-.17-.178.23-1.874c-1.673-.1-3.5,0-5.2-.022-2.574-.03-1.027.259-1.991,2.887L893.9,66.713l7.331.013ZM755.684,20.878a15.057,15.057,0,0,0-4.779,2.248c-10.336,7.7-4.039,24.322,8.964,23.079a13.631,13.631,0,0,0,5.273-1.691c.56-.46,1.053-.706,1.626-1.17a19.937,19.937,0,0,0,1.506-1.445c4.575-4.769,4.687-14.55-3.06-19.481-2.882-1.834-5.763-2.04-9.53-1.541M756.87,25.1a8.521,8.521,0,0,1,3.646,16.647A8.522,8.522,0,1,1,756.87,25.1m4.3,12.289a41.262,41.262,0,0,0-.089-8.195,2.708,2.708,0,0,0-5.035.163,38.874,38.874,0,0,0,.085,8.367,2.713,2.713,0,0,0,5.039-.335M777.1,42.707c.152.91-1.009,6.434-1.256,7.847a70.1,70.1,0,0,0-1.322,7.849c-.312.411-.218.194-.178.763l6.694.011a4.5,4.5,0,0,0,.455-.023c.359-.067.162.044.354-.172l2.893-16.191c.181,3.78.422,7.262.758,10.966.637,7.01-1,5.142,6.256,5.362l6.9-16.288c.342,1.245-2.624,13.054-2.647,15.784-.215.235-.175-.119-.165.518l5.878.035c1.384,0,1.493.2,1.653-.313l.214-.934,4.229-24.537h-9.982c-1.256,2.629-2.516,5.314-3.671,7.963-.888,2.037-3.077,6.022-3.463,8.035-.164-.185-.08-.055-.215-.338-.143-.3.059-.066-.16-.383.184-2.117-.4-5.633-.61-7.841-.232-2.386-.425-5.121-.783-7.437l-10.03.008Z" transform="translate(-745.739 -20.644)" fill="#676767" fill-rule="evenodd"></path></svg>