<svg xmlns="http://www.w3.org/2000/svg" width="152.025" height="70.659" viewBox="0 0 152.025 70.659"><path id="Path_21" data-name="Path 21" d="M521.267,30.158v9.458h2.92c3.5,0,5.223-1.562,5.223-4.688,0-1.974-.617-3.331-1.809-4.071a6.932,6.932,0,0,0-3.414-.7Zm16.2,25.085V35.669h3.7v3.948h.082a5.95,5.95,0,0,1,6.045-4.4v4.03c-4.071,0-6.128,2.55-6.128,7.69v8.307Zm16.407-9.788c0,4.893,1.521,7.361,4.565,7.361,3,0,4.523-2.468,4.523-7.361s-1.521-7.361-4.523-7.361c-3.044,0-4.565,2.468-4.565,7.361m4.565,10.2c-2.878,0-5.058-.9-6.539-2.754-1.439-1.769-2.138-4.236-2.138-7.444,0-6.457,2.878-10.239,8.677-10.239,2.878,0,5.058.9,6.539,2.754,1.4,1.769,2.1,4.277,2.1,7.485s-.7,5.675-2.1,7.444a7.972,7.972,0,0,1-6.539,2.754m14.8-.411v-16.7h-3.536V35.669h3.536V33.407c0-4.647,2.509-6.991,7.484-6.991a17.847,17.847,0,0,1,3.948.37v3.085a15.477,15.477,0,0,0-3.907-.577,3.407,3.407,0,0,0-3,1.44,5.088,5.088,0,0,0-.822,2.919v2.015h5.839v2.879h-5.839v16.7ZM586.61,35.669h3.7V55.244h-3.7Zm-.37-8.8h4.441v4.194H586.24ZM607.253,52.53v2.837a12.548,12.548,0,0,1-2.919.288c-3.906,0-5.88-1.562-5.88-4.729V38.548h-3.5V35.669h3.5V31.063l3.7-2.3v6.908h5.428v2.879h-5.428V48.993c0,2.549,1.028,3.824,3.125,3.824a5.869,5.869,0,0,0,1.974-.288M519.815,66.683v-7.84h3.579v.624h-2.9v2.8h2.773v.625H520.5v3.8Zm7.92-7.84h.682v7.841h-.682Zm6.852,7.84V59.468h-1.863v-.624h4.409v.624h-1.864v7.216Zm7.511-7.216v3.011h1.182c1.114,0,1.67-.489,1.67-1.477a1.37,1.37,0,0,0-.569-1.249,2.487,2.487,0,0,0-1.364-.285Zm-.682,7.216v-7.84H543.1c1.694,0,2.534.7,2.534,2.124s-.795,2.137-2.4,2.137H542.1v3.579Zm9.421-7.216v3.045h.614c1.455,0,2.182-.556,2.182-1.658,0-.921-.636-1.387-1.9-1.387Zm-.682,7.216v-7.84H551.8c1.67,0,2.511.67,2.511,2.011a1.824,1.824,0,0,1-.727,1.614,3.379,3.379,0,0,1-.853.34v.023a1.454,1.454,0,0,1,.966.636,4.245,4.245,0,0,1,.341,1.1l.443,2.114H553.8l-.4-1.852a3.311,3.311,0,0,0-.454-1.25,1.428,1.428,0,0,0-1.17-.444h-.943v3.545Zm9.7-3.954c0,2.284.647,3.432,1.931,3.432s1.932-1.148,1.932-3.432c0-2.238-.647-3.363-1.932-3.363s-1.931,1.125-1.931,3.363m1.966,4.069a2.29,2.29,0,0,1-2.17-1.307,7.093,7.093,0,0,1,0-5.454,2.31,2.31,0,0,1,2.17-1.318,2.242,2.242,0,0,1,2.137,1.318,7.532,7.532,0,0,1,0,5.454,2.222,2.222,0,0,1-2.137,1.307m7.5-.114v-7.84H572.9v.624h-2.9v2.8h2.772v.625h-2.772v3.8Zm7.92-7.84h.682v7.841h-.682Zm6.852,7.84V59.468h-1.863v-.624h4.408v.624h-1.863v7.216Zm5.813-.943h.944v.943h-.944Zm6.477-6.273v3.011h1.182c1.114,0,1.67-.489,1.67-1.477a1.372,1.372,0,0,0-.568-1.249,2.489,2.489,0,0,0-1.363-.285Zm-.682,7.216v-7.84h1.682c1.694,0,2.534.7,2.534,2.124s-.795,2.137-2.4,2.137h-1.137v3.579Zm8.746,0v-7.84h.682v7.215h2.783v.625ZM512.5,76.343h-.55V5.685h.55ZM455.892,14.313V67.428m0,0h52.321V14.313H455.892Zm21.986-38.689H467.391V38.856h10.035v2.261H467.391V54.853h-2.467V26.477h12.954Zm5.716,26.114h-2.056V35.278h2.056Zm.494-25.044h-3.043V26.477h3.043Zm15.092,7.443h-5.223V49.63a5.089,5.089,0,0,0,.411,2.344,2.789,2.789,0,0,0,2.8,1.356,7.035,7.035,0,0,0,2.015-.37V55.1a9.785,9.785,0,0,1-2.1.164c-3.453,0-5.181-1.6-5.181-4.769V37.252h-3.126V35.278H491.9V30.755l2.056-1.358v5.881h5.223Zm17.976,17.992V26.868h6.826A13.765,13.765,0,0,1,530.52,28.1c2.261,1.275,3.413,3.577,3.413,6.826a7.133,7.133,0,0,1-3.413,6.58,10.453,10.453,0,0,1-5.592,1.4h-3.661V55.244Z" transform="translate(-455.892 -5.685)" fill="#676767" fill-rule="evenodd"></path></svg>