<svg xmlns="http://www.w3.org/2000/svg" width="79.999" height="80" viewBox="0 0 79.999 80"><path id="Path_23" data-name="Path 23" d="M23.43,35.912h.058l2.429,0a2.376,2.376,0,0,1,2.314,2.31,2.46,2.46,0,0,1-2.314,2.409l-2.429,0H23.43Zm-4.943-3.7.556,3.692V47.837H23.43V44.09h.058l2.82,0a6.037,6.037,0,0,0,5.9-5.979,5.968,5.968,0,0,0-5.9-5.9Zm28.9.349v8.716a6.975,6.975,0,1,0,13.949,0V31.843l-4.434.718c0,.714.011,8.807.011,8.925a2.551,2.551,0,1,1-5.1,0c0-.124,0-8.793,0-9.643ZM11.874,40A28.231,28.231,0,0,1,40,11.874h0A28.126,28.126,0,1,1,11.874,40M0,40.005A40,40,0,1,0,40,0,40.045,40.045,0,0,0,0,40.005M31.082,56.211H47.508L46.43,51.385H38.086l.027-.076,8.9-27.252H31.834l.884,4.533h7.611l-.028.08Z" fill="#676767" fill-rule="evenodd"></path></svg>